<?xml version="1.0" encoding="UTF-8"?>
<svg version="1.1" viewBox="0 0 2048 2048" width="1280" height="1280" xmlns="http://www.w3.org/2000/svg">
<path transform="translate(945)" d="m0 0h158l10 8 5 10 3 18 9 67v2l12 3 27 9 26 11 24 12 6 4 5-1 21-16 13-10 18-14 15-11 7-3h11l10 5 103 103 4 6 2 7-1 10-6 11-9 11-21 28-10 13-8 11 1 5 12 23 10 23 9 24 7 23 19 3 65 9 9 3 7 6 4 7 1 5 1 86 10 6 52 30 24 14 23 13 24 14 26 15 24 14 28 16 24 14 23 13 20 12 10 9 3 6 1 8v860l-1 32-4 8-9 8-27 15-24 14-26 15-24 14-78 45-24 14-49 28-24 14-21 12-26 15-24 14-52 30-24 14-28 16-24 14-28 16-24 14-28 16-24 14-28 16-24 14-52 30-24 14-28 16-24 14-13 7h-12l-17-9-24-14-130-75-24-14-28-16-24-14-28-16-24-14-156-90-28-16-24-14-52-30-24-14-78-45-21-12-78-45-16-10-5-4-4-8-1-5v-894l5-10 10-8 28-16 43-25 28-16 52-30 24-14 28-16 52-30 22-13 1-88 4-9 5-5 7-4 24-4 62-8 3-2 8-25 10-27 16-33 5-9-1-5-14-18-26-34-11-15-3-8v-9l5-10 43-43 3-4h2l2-4h2l2-4h2l2-4h2l2-4h2l2-4 34-34 9-6 5-2h10l12 6 18 14 16 12 13 10 12 9 6 4 5-2 21-11 25-11 28-10 17-5 2-5 5-36 7-48 3-6 8-7z" fill="#286EFE"/>
<path transform="translate(281,737)" d="m0 0 5 2 27 15 24 14 26 15 14 8 17 10 26 15 28 16 41 24 25 14 17 10 26 15 24 14 56 32 48 28 28 16 24 14 28 16 24 14 28 16 24 14 28 16 24 14 28 16 24 14 25 14 29 17 1 2 1 33v695l-1 101-2 1-26-15-21-12-24-14-26-15-21-12-17-10-26-15-24-14-23-13-24-14-52-30-24-14-23-13-19-11-24-14-28-16-48-28-49-28-19-11-24-14-21-12-26-15-21-12-48-28-23-13-36-21-1-1v-826z" fill="#BBD3FE"/>
<path transform="translate(1764,737)" d="m0 0 4 1v827l-1 3-26 14-15 9-26 15-28 16-19 11-15 9-28 16-45 26-17 10-28 16-24 14-21 12-24 14-56 32-48 28-28 16-26 15-15 9-56 32-26 15-22 13-28 16-26 15-28 16-13 8-21 12-8 5h-2l-1-175v-526l1-129 4-4 20-11 24-14 42-24 26-15 24-14 28-16 24-14 26-15 8-5h4v298l2 10 4 6 7 6 8 3 8-1 8-4 8-9 48-80 13-22 12-20 13-22 9-14 3-1 26 15 49 28 19 10h8l10-5 6-7 3-7 1-10v-328l5-4 28-16 24-14 28-16 24-14 28-16 24-14 21-12 26-15z" fill="#BBD3FE"/>
<path transform="translate(975,48)" d="m0 0h98l2 5 6 45 4 28 3 10 4 5 12 6 36 11 27 10 29 14 16 9 14 7h7l12-6 19-14 13-10 28-21 3-1 8 7 13 13 6 5 28 28 7 8 7 7-2 6-13 16-12 16-10 13-11 15-3 6v13l8 16 10 18 8 16 10 25 8 24 7 24 4 8 5 4 11 4 42 6 30 4 6 2v98l-29 5-45 6-12 3-7 4-5 9-9 31-9 25-12 27-12 22-7 12-3 9v7l6 12 13 17 9 12 11 14 13 17-1 5-67 67-5-1-8-7-11-8-12-9-14-11-14-10-12-6h-8l-19 9-19 11-26 12-25 9-36 11-6 3-6 7-3 10-10 72-1 5-2 1h-97l-2-6-9-68-3-12-4-6-5-4-10-4-31-9-27-10-29-14-26-14-7-3h-8l-12 6-16 12-13 10-14 11-16 12-5 1-9-10-58-58 1-5 10-12 8-11 20-26 9-13 4-8v-9l-8-17-10-17-12-25-9-24-11-35-4-10-4-6-6-4-18-4-67-9-1-1v-98l5-2 69-9 11-3 9-6 5-10 10-34 8-22 9-20 14-27 9-17 1-10-7-14-10-13-7-9v-2h-2l-7-10-10-13-8-11v-5l65-65 5-2 21 16 36 27 9 6 7 3 9-1 16-8 18-10 23-11 21-8 22-7 21-6 11-6 5-7 3-12 8-60 1-11z" fill="#BBD3FE"/>
<path transform="translate(522,568)" d="m0 0 3 1 3 11 4 5v2l15 6 43 6 38 5 3 3 12 36 10 23 12 25 5 9-1 6-7 8-12 16-11 14-9 12-10 13-4 8-1 4v8l5 10 9 10 92 92 8 5 7 2 9-1 14-8 18-14 16-12 15-12 13-9 14 8 28 13 26 10 29 10 1 1 7 54 5 32 4 9 9 6 6 2h148l10-4 5-4 4-8 3-19 9-67 3-3 33-11 31-13 28-14 5-2 10 9 14 10 14 11 16 12 14 10 10 4h7l10-5 10-9 93-93 5-8 1-4v-9l-6-12-10-13-11-14-9-12-10-13-9-12 1-5 15-30 9-21 12-34 3-8 3-2 52-7 28-4 10-4 8-7 3-5 2-8 5 1 27 15 43 25 14 8 24 14 23 13 24 14 28 16 17 10 13 8-1 3-18 10-48 28-28 16-26 15-14 8-22 13-28 16-64 37-24 14-25 14-34 20-64 37-17 10-23 13-26 15-28 16-24 14-43 25-23 13-19 11-13 8-25 14-24 14-26 15-24 14-5 3h-5l-13-8-28-16-130-75-28-16-24-14-26-15-24-14-28-16-17-10-21-12-78-45-24-14-28-16-52-30-24-14-28-16-29-17-21-12-52-30-19-11-17-10-5-3 1-3 27-15 21-12 45-26 24-14 28-16 24-14 43-25z" fill="#BBD3FE"/>
<path transform="translate(1011,350)" d="m0 0h25l16 2 21 6 17 7 16 9 11 8 11 9 12 13 10 14 8 14 8 20 5 21 2 14v24l-3 20-6 20-7 16-9 15-9 12-14 15-17 13-13 8-17 8-18 6-23 4h-26l-23-4-24-8-19-10-14-10-10-9-11-11-13-18-10-19-7-21-4-20-1-8v-23l2-16 5-19 6-15 8-15 8-12 12-14 9-9 14-11 13-8 16-8 23-7z" fill="#BBD3FE"/>
<path transform="translate(1015,301)" d="m0 0h18l24 3 25 6 21 8 25 13 17 12 14 12 12 12 11 14 11 16 8 14 8 19 5 15 4 18 3 23v27l-2 17-5 22-7 21-12 25-9 14-13 16-7 8-11 11-17 13-18 11-23 11-17 6-25 6-13 2h-33l-20-3-18-4-21-7-21-10-16-10-12-9-11-10-8-7-9-10-13-18-8-13-8-16-7-17-6-23-4-25v-23l2-22 5-23 7-21 12-25 16-24h2l2-4 9-10 4-5 8-7 15-12 16-10 19-10 25-9 21-5zm-4 49-20 3-17 5-12 5-17 9-11 8-13 11-9 9-11 14-11 19-5 11-5 14-4 19-1 10v23l3 20 6 21 7 16 8 14 13 17 16 16 14 10 14 8 16 7 20 6 19 3h26l23-4 18-6 21-10 17-12 13-11 12-13 12-18 8-16 7-19 4-19 1-9v-24l-4-24-5-17-8-18-10-16-9-11-11-12-14-11-18-11-18-8-16-5-15-3-9-1z" fill="#286EFE"/>
<path transform="translate(1493,894)" d="m0 0h2l1 44v162l-1 57-5-1-17-10-26-15-21-12-13-6h-7l-8 4-5 4-10 15-16 27-24 40-11 19-4 7h-3v-236l5-5 24-14 23-13 24-14 14-8 24-14 28-16 23-14z" fill="#BBD3FE"/>
<path transform="translate(1394,1609)" d="m0 0h8l9 4 7 7 4 8 1 8-4 10-8 8-18 11-23 13-24 14-26 15-28 16-24 14-16 9-24 14-28 16-18 10-10 3-9-2-9-6-6-10-1-9 3-9 7-8 16-10 26-15 28-16 43-25 26-15 28-16 22-13 26-15 14-8z" fill="#286EFE"/>
</svg>
